<svg width="3000" height="3000" viewBox="0 0 3000 3000" fill="none" xmlns="http://www.w3.org/2000/svg">
<rect width="3000" height="3000" rx="1500" fill="#EAF7FF"/>
<g clip-path="url(#clip0_122_18)">
<path d="M477.552 1355C473.152 1355 469.552 1353.6 466.752 1350.8C463.952 1348 462.552 1344.4 462.552 1340V1029.2H355.752C351.352 1029.2 347.752 1027.8 344.952 1025C342.152 1021.8 340.752 1018.2 340.752 1014.2V950C340.752 945.6 342.152 942 344.952 939.2C347.752 936.4 351.352 935 355.752 935H678.552C682.952 935 686.552 936.4 689.352 939.2C692.152 942 693.552 945.6 693.552 950V1014.2C693.552 1018.2 692.152 1021.8 689.352 1025C686.552 1027.8 682.952 1029.2 678.552 1029.2H571.752V1340C571.752 1344.4 570.352 1348 567.552 1350.8C564.752 1353.6 561.152 1355 556.752 1355H477.552ZM733.082 1355C728.682 1355 725.082 1353.6 722.282 1350.8C719.482 1348 718.082 1344.4 718.082 1340V950C718.082 945.6 719.482 942 722.282 939.2C725.082 936.4 728.682 935 733.082 935H1013.28C1017.68 935 1021.28 936.4 1024.08 939.2C1026.88 942 1028.28 945.6 1028.28 950V1006.4C1028.28 1010.8 1026.88 1014.4 1024.08 1017.2C1021.28 1020 1017.68 1021.4 1013.28 1021.4H821.882V1102.4H1000.08C1004.48 1102.4 1008.08 1104 1010.88 1107.2C1013.68 1110 1015.08 1113.6 1015.08 1118V1170.2C1015.08 1174.2 1013.68 1177.8 1010.88 1181C1008.08 1183.8 1004.48 1185.2 1000.08 1185.2H821.882V1268.6H1018.08C1022.48 1268.6 1026.08 1270 1028.88 1272.8C1031.68 1275.6 1033.08 1279.2 1033.08 1283.6V1340C1033.08 1344.4 1031.68 1348 1028.88 1350.8C1026.08 1353.6 1022.48 1355 1018.08 1355H733.082ZM1992.38 1355C1987.98 1355 1984.38 1353.6 1981.58 1350.8C1978.78 1348 1977.38 1344.4 1977.38 1340V950C1977.38 945.6 1978.78 942 1981.58 939.2C1984.38 936.4 1987.98 935 1992.38 935H2071.58C2075.58 935 2078.98 936.4 2081.78 939.2C2084.98 942 2086.58 945.6 2086.58 950V1264.4H2267.78C2272.18 1264.4 2275.78 1266 2278.58 1269.2C2281.78 1272 2283.38 1275.6 2283.38 1280V1340C2283.38 1344.4 2281.78 1348 2278.58 1350.8C2275.78 1353.6 2272.18 1355 2267.78 1355H1992.38ZM2472.3 1361C2435.5 1361 2403.5 1355 2376.3 1343C2349.1 1331 2327.9 1313 2312.7 1289C2297.5 1264.6 2289.1 1234.2 2287.5 1197.8C2287.1 1180.6 2286.9 1163.4 2286.9 1146.2C2286.9 1129 2287.1 1111.6 2287.5 1094C2289.1 1058 2297.5 1027.8 2312.7 1003.4C2328.3 978.6 2349.7 960 2376.9 947.6C2404.1 935.2 2435.9 929 2472.3 929C2508.3 929 2539.9 935.2 2567.1 947.6C2594.7 960 2616.3 978.6 2631.9 1003.4C2647.5 1027.8 2655.9 1058 2657.1 1094C2657.9 1111.6 2658.3 1129 2658.3 1146.2C2658.3 1163.4 2657.9 1180.6 2657.1 1197.8C2655.5 1234.2 2647.1 1264.6 2631.9 1289C2616.7 1313 2595.5 1331 2568.3 1343C2541.1 1355 2509.1 1361 2472.3 1361ZM2472.3 1274.6C2493.5 1274.6 2510.7 1268.2 2523.9 1255.4C2537.5 1242.6 2544.7 1222.2 2545.5 1194.2C2546.3 1176.6 2546.7 1160 2546.7 1144.4C2546.7 1128.8 2546.3 1112.6 2545.5 1095.8C2544.7 1077 2541.1 1061.8 2534.7 1050.2C2528.7 1038.2 2520.3 1029.4 2509.5 1023.8C2498.7 1018.2 2486.3 1015.4 2472.3 1015.4C2458.7 1015.4 2446.5 1018.2 2435.7 1023.8C2424.9 1029.4 2416.3 1038.2 2409.9 1050.2C2403.5 1061.8 2399.9 1077 2399.1 1095.8C2398.7 1112.6 2398.5 1128.8 2398.5 1144.4C2398.5 1160 2398.7 1176.6 2399.1 1194.2C2400.3 1222.2 2407.5 1242.6 2420.7 1255.4C2433.9 1268.2 2451.1 1274.6 2472.3 1274.6ZM546.63 2072C508.63 2072 476.03 2065.8 448.83 2053.4C422.03 2041 401.03 2022.8 385.83 1998.8C371.03 1974.8 362.83 1945 361.23 1909.4C360.83 1893 360.63 1875.4 360.63 1856.6C360.63 1837.8 360.83 1819.8 361.23 1802.6C362.83 1767.8 371.23 1738.4 386.43 1714.4C401.63 1690 422.83 1671.6 450.03 1659.2C477.23 1646.4 509.43 1640 546.63 1640C573.03 1640 597.43 1643.4 619.83 1650.2C642.23 1656.6 661.83 1666.2 678.63 1679C695.43 1691.4 708.43 1706.6 717.63 1724.6C727.23 1742.2 732.23 1762.2 732.63 1784.6C733.03 1788.2 731.83 1791.2 729.03 1793.6C726.63 1796 723.63 1797.2 720.03 1797.2H639.03C633.83 1797.2 629.83 1796.2 627.03 1794.2C624.23 1791.8 621.83 1787.6 619.83 1781.6C614.23 1760.4 605.03 1746 592.23 1738.4C579.83 1730.4 564.43 1726.4 546.03 1726.4C524.03 1726.4 506.63 1732.6 493.83 1745C481.03 1757 474.03 1777.2 472.83 1805.6C471.63 1838.4 471.63 1872 472.83 1906.4C474.03 1934.8 481.03 1955.2 493.83 1967.6C506.63 1979.6 524.03 1985.6 546.03 1985.6C564.43 1985.6 580.03 1981.6 592.83 1973.6C605.63 1965.6 614.63 1951.2 619.83 1930.4C621.43 1924.4 623.63 1920.4 626.43 1918.4C629.63 1916 633.83 1914.8 639.03 1914.8H720.03C723.63 1914.8 726.63 1916 729.03 1918.4C731.83 1920.8 733.03 1923.8 732.63 1927.4C732.23 1949.8 727.23 1970 717.63 1988C708.43 2005.6 695.43 2020.8 678.63 2033.6C661.83 2046 642.23 2055.6 619.83 2062.4C597.43 2068.8 573.03 2072 546.63 2072ZM941.519 2072C905.519 2072 873.919 2066.2 846.719 2054.6C819.919 2042.6 799.119 2024.4 784.319 2000C769.519 1975.2 762.119 1943.8 762.119 1905.8V1661C762.119 1656.6 763.519 1653 766.319 1650.2C769.119 1647.4 772.719 1646 777.119 1646H854.519C858.919 1646 862.519 1647.4 865.319 1650.2C868.119 1653 869.519 1656.6 869.519 1661V1905.2C869.519 1931.2 875.719 1950.8 888.119 1964C900.919 1976.8 918.719 1983.2 941.519 1983.2C963.919 1983.2 981.319 1976.8 993.719 1964C1006.52 1950.8 1012.92 1931.2 1012.92 1905.2V1661C1012.92 1656.6 1014.32 1653 1017.12 1650.2C1020.32 1647.4 1023.92 1646 1027.92 1646H1105.92C1109.92 1646 1113.32 1647.4 1116.12 1650.2C1119.32 1653 1120.92 1656.6 1120.92 1661V1905.8C1120.92 1943.8 1113.52 1975.2 1098.72 2000C1083.92 2024.4 1063.12 2042.6 1036.32 2054.6C1009.52 2066.2 977.919 2072 941.519 2072ZM1185.48 2066C1181.08 2066 1177.48 2064.6 1174.68 2061.8C1171.88 2059 1170.48 2055.4 1170.48 2051V1661C1170.48 1656.6 1171.88 1653 1174.68 1650.2C1177.48 1647.4 1181.08 1646 1185.48 1646H1465.68C1470.08 1646 1473.68 1647.4 1476.48 1650.2C1479.28 1653 1480.68 1656.6 1480.68 1661V1717.4C1480.68 1721.8 1479.28 1725.4 1476.48 1728.2C1473.68 1731 1470.08 1732.4 1465.68 1732.4H1274.28V1813.4H1452.48C1456.88 1813.4 1460.48 1815 1463.28 1818.2C1466.08 1821 1467.48 1824.6 1467.48 1829V1881.2C1467.48 1885.2 1466.08 1888.8 1463.28 1892C1460.48 1894.8 1456.88 1896.2 1452.48 1896.2H1274.28V1979.6H1470.48C1474.88 1979.6 1478.48 1981 1481.28 1983.8C1484.08 1986.6 1485.48 1990.2 1485.48 1994.6V2051C1485.48 2055.4 1484.08 2059 1481.28 2061.8C1478.48 2064.6 1474.88 2066 1470.48 2066H1185.48ZM1538.69 2066C1534.29 2066 1530.69 2064.6 1527.89 2061.8C1525.09 2059 1523.69 2055.4 1523.69 2051V1661C1523.69 1656.6 1525.09 1653 1527.89 1650.2C1530.69 1647.4 1534.29 1646 1538.69 1646H1602.29C1609.09 1646 1613.89 1647.6 1616.69 1650.8C1619.89 1653.6 1621.89 1655.8 1622.69 1657.4L1769.09 1888.4V1661C1769.09 1656.6 1770.49 1653 1773.29 1650.2C1776.09 1647.4 1779.69 1646 1784.09 1646H1856.09C1860.49 1646 1864.09 1647.4 1866.89 1650.2C1869.69 1653 1871.09 1656.6 1871.09 1661V2051C1871.09 2055 1869.69 2058.6 1866.89 2061.8C1864.09 2064.6 1860.49 2066 1856.09 2066H1791.89C1785.49 2066 1780.69 2064.4 1777.49 2061.2C1774.69 2058 1772.89 2055.8 1772.09 2054.6L1625.69 1832.6V2051C1625.69 2055.4 1624.29 2059 1621.49 2061.8C1618.69 2064.6 1615.09 2066 1610.69 2066H1538.69ZM2032.34 2066C2027.94 2066 2024.34 2064.6 2021.54 2061.8C2018.74 2059 2017.34 2055.4 2017.34 2051V1740.2H1910.54C1906.14 1740.2 1902.54 1738.8 1899.74 1736C1896.94 1732.8 1895.54 1729.2 1895.54 1725.2V1661C1895.54 1656.6 1896.94 1653 1899.74 1650.2C1902.54 1647.4 1906.14 1646 1910.54 1646H2233.34C2237.74 1646 2241.34 1647.4 2244.14 1650.2C2246.94 1653 2248.34 1656.6 2248.34 1661V1725.2C2248.34 1729.2 2246.94 1732.8 2244.14 1736C2241.34 1738.8 2237.74 1740.2 2233.34 1740.2H2126.54V2051C2126.54 2055.4 2125.14 2059 2122.34 2061.8C2119.54 2064.6 2115.94 2066 2111.54 2066H2032.34ZM2438.02 2072C2401.22 2072 2369.22 2066 2342.02 2054C2314.82 2042 2293.62 2024 2278.42 2000C2263.22 1975.6 2254.82 1945.2 2253.22 1908.8C2252.82 1891.6 2252.62 1874.4 2252.62 1857.2C2252.62 1840 2252.82 1822.6 2253.22 1805C2254.82 1769 2263.22 1738.8 2278.42 1714.4C2294.02 1689.6 2315.42 1671 2342.62 1658.6C2369.82 1646.2 2401.62 1640 2438.02 1640C2474.02 1640 2505.62 1646.2 2532.82 1658.6C2560.42 1671 2582.02 1689.6 2597.62 1714.4C2613.22 1738.8 2621.62 1769 2622.82 1805C2623.62 1822.6 2624.02 1840 2624.02 1857.2C2624.02 1874.4 2623.62 1891.6 2622.82 1908.8C2621.22 1945.2 2612.82 1975.6 2597.62 2000C2582.42 2024 2561.22 2042 2534.02 2054C2506.82 2066 2474.82 2072 2438.02 2072ZM2438.02 1985.6C2459.22 1985.6 2476.42 1979.2 2489.62 1966.4C2503.22 1953.6 2510.42 1933.2 2511.22 1905.2C2512.02 1887.6 2512.42 1871 2512.42 1855.4C2512.42 1839.8 2512.02 1823.6 2511.22 1806.8C2510.42 1788 2506.82 1772.8 2500.42 1761.2C2494.42 1749.2 2486.02 1740.4 2475.22 1734.8C2464.42 1729.2 2452.02 1726.4 2438.02 1726.4C2424.42 1726.4 2412.22 1729.2 2401.42 1734.8C2390.62 1740.4 2382.02 1749.2 2375.62 1761.2C2369.22 1772.8 2365.62 1788 2364.82 1806.8C2364.42 1823.6 2364.22 1839.8 2364.22 1855.4C2364.22 1871 2364.42 1887.6 2364.82 1905.2C2366.02 1933.2 2373.22 1953.6 2386.42 1966.4C2399.62 1979.2 2416.82 1985.6 2438.02 1985.6Z" fill="#3B6FB9"/>
<path d="M1243.48 1361C1205.48 1361 1172.88 1354.8 1145.68 1342.4C1118.88 1330 1097.88 1311.8 1082.68 1287.8C1067.88 1263.8 1059.68 1234 1058.08 1198.4C1057.68 1182 1057.48 1164.4 1057.48 1145.6C1057.48 1126.8 1057.68 1108.8 1058.08 1091.6C1059.68 1056.8 1068.08 1027.4 1083.28 1003.4C1098.48 979 1119.68 960.6 1146.88 948.2C1174.08 935.4 1206.28 929 1243.48 929C1269.88 929 1294.28 932.4 1316.68 939.2C1339.08 945.6 1358.69 955.2 1375.49 968C1392.29 980.4 1405.29 995.6 1414.49 1013.6C1424.09 1031.2 1429.09 1051.2 1429.49 1073.6C1429.89 1077.2 1428.69 1080.2 1425.89 1082.6C1423.49 1085 1420.49 1086.2 1416.89 1086.2H1335.88C1330.68 1086.2 1326.68 1085.2 1323.88 1083.2C1321.08 1080.8 1318.68 1076.6 1316.68 1070.6C1311.08 1049.4 1301.88 1035 1289.08 1027.4C1276.68 1019.4 1261.28 1015.4 1242.88 1015.4C1220.88 1015.4 1203.48 1021.6 1190.68 1034C1177.88 1046 1170.88 1066.2 1169.68 1094.6C1168.48 1127.4 1168.48 1161 1169.68 1195.4C1170.88 1223.8 1177.88 1244.2 1190.68 1256.6C1203.48 1268.6 1220.88 1274.6 1242.88 1274.6C1261.28 1274.6 1276.88 1270.6 1289.68 1262.6C1302.48 1254.6 1311.48 1240.2 1316.68 1219.4C1318.28 1213.4 1320.48 1209.4 1323.28 1207.4C1326.48 1205 1330.68 1203.8 1335.88 1203.8H1416.89C1420.49 1203.8 1423.49 1205 1425.89 1207.4C1428.69 1209.8 1429.89 1212.8 1429.49 1216.4C1429.09 1238.8 1424.09 1259 1414.49 1277C1405.29 1294.6 1392.29 1309.8 1375.49 1322.6C1358.69 1335 1339.08 1344.6 1316.68 1351.4C1294.28 1357.8 1269.88 1361 1243.48 1361ZM1477.57 1355C1473.17 1355 1469.57 1353.6 1466.77 1350.8C1463.97 1348 1462.57 1344.4 1462.57 1340V950C1462.57 945.6 1463.97 942 1466.77 939.2C1469.57 936.4 1473.17 935 1477.57 935H1554.97C1559.37 935 1562.97 936.4 1565.77 939.2C1568.57 942 1569.97 945.6 1569.97 950V1094.6H1718.17V950C1718.17 945.6 1719.57 942 1722.37 939.2C1725.17 936.4 1728.77 935 1733.17 935H1810.57C1814.97 935 1818.57 936.4 1821.37 939.2C1824.17 942 1825.57 945.6 1825.57 950V1340C1825.57 1344.4 1824.17 1348 1821.37 1350.8C1818.57 1353.6 1814.97 1355 1810.57 1355H1733.17C1728.77 1355 1725.17 1353.6 1722.37 1350.8C1719.57 1348 1718.17 1344.4 1718.17 1340V1190.6H1569.97V1340C1569.97 1344.4 1568.57 1348 1565.77 1350.8C1562.97 1353.6 1559.37 1355 1554.97 1355H1477.57Z" fill="#5583C3"/>
</g>
<defs>
<clipPath id="clip0_122_18">
<rect width="2319" height="1143" fill="white" transform="translate(340 929)"/>
</clipPath>
</defs>
</svg>
